<svg width="360" height="283" viewBox="0 0 360 283" fill="none" xmlns="http://www.w3.org/2000/svg">
<path fill-rule="evenodd" clip-rule="evenodd" d="M47.6655 0.000450452C52.2437 -0.0188342 55.2572 0.578991 58.7729 2.19891C61.458 3.44277 65.2346 6.32583 67.2725 8.69785C69.4844 11.2724 71.5513 15.0811 72.4592 18.2727C73.4444 21.7054 73.7631 25.1091 73.3575 27.9151C73.0098 30.3064 71.8797 33.9897 70.8366 36.111C69.7934 38.2324 68.9338 40.2958 68.9242 40.6912C68.9242 41.0865 73.5796 47.3829 79.2686 54.6726C84.9672 61.9622 100.402 81.4879 137.491 128.195H163.086C187.397 128.195 188.778 128.292 190.614 130.124C191.676 131.185 192.545 133.132 192.545 134.463C192.545 135.784 191.676 137.741 190.614 138.802C188.711 140.702 187.397 140.731 39.9385 140.731L40.4118 142.9C40.6726 144.096 42.3725 151.8 44.1883 160.015C46.0042 168.231 48.5541 177.786 49.858 181.228C51.1522 184.671 53.2095 189.444 54.4265 191.835C55.6339 194.226 58.4059 198.777 60.5791 201.959C62.7619 205.141 67.147 210.503 70.344 213.877C73.541 217.252 78.9885 222.073 82.4366 224.59C85.8848 227.107 90.6658 230.298 93.0611 231.677C95.4565 233.056 100.238 235.312 103.686 236.682C107.134 238.06 113.441 240.105 117.691 241.233C124.973 243.161 128.209 243.306 174.194 243.672C207.4 243.933 225.897 243.701 232.146 242.949C237.197 242.332 245.233 240.51 250.014 238.899C254.795 237.279 260.88 234.869 263.536 233.528C266.193 232.198 270.974 229.353 274.161 227.203C277.348 225.063 283.134 220.241 287.017 216.49C290.899 212.74 296.173 206.636 298.723 202.924C301.282 199.211 304.673 193.571 306.257 190.389C307.85 187.207 310.062 181.778 311.192 178.336C312.313 174.893 315.027 163.824 317.219 153.748C319.421 143.671 321.817 134.019 322.56 132.293C323.459 130.182 324.772 128.967 326.559 128.572C328.018 128.244 330.191 128.465 331.388 129.054C332.586 129.642 333.813 131.098 334.112 132.293C334.421 133.489 332.654 143.575 330.181 154.712C327.718 165.849 324.396 178.866 322.802 183.639C321.208 188.412 318.378 195.142 316.504 198.585C314.64 202.027 311.105 207.677 308.652 211.12C306.189 214.562 301.997 219.711 299.312 222.555C296.637 225.4 291.836 229.807 288.649 232.342C285.462 234.878 279.589 238.88 275.61 241.242C271.621 243.595 264.454 247.086 259.673 248.985C254.892 250.875 247.435 253.228 235.217 255.957L239.96 265.358C242.567 270.526 244.702 275.405 244.702 276.206C244.702 277.006 243.64 278.732 239.96 282.473L180.279 282.512C124.278 282.55 120.463 282.444 118.502 280.824C117.353 279.879 116.145 278.23 115.827 277.17C115.45 275.926 116.957 271.751 124.935 255.474L121.313 254.915C119.323 254.597 114.426 253.498 110.447 252.466C106.458 251.434 98.4217 248.262 92.5782 245.437C86.7347 242.602 78.4766 237.684 74.2268 234.502C69.977 231.33 63.9306 225.959 60.8012 222.575C57.6622 219.19 53.2385 213.82 50.9687 210.638C48.6989 207.456 44.9031 200.947 42.5464 196.174C40.1897 191.401 37.3693 184.671 36.2876 181.228C35.1961 177.786 33.2065 169.966 31.8542 163.872C30.502 157.778 28.5123 148.666 27.4209 143.623C26.3295 138.58 25.4409 133.923 25.4506 133.258C25.4506 132.592 26.3198 131.185 27.3823 130.124C29.1112 128.398 30.5986 128.195 41.8703 128.195C48.7762 128.195 54.4169 127.868 54.4072 127.472C54.3975 127.077 48.641 112.575 28.8311 63.7653L23.5188 63.3218C20.5923 63.0807 16.468 62.0104 14.3431 60.9401C12.2182 59.8698 9.01153 57.5363 7.21502 55.7525C5.42816 53.9687 3.07145 50.5553 1.98002 48.164C0.695423 45.3388 0 41.8 0 38.0395C0 33.8258 0.676106 30.8078 2.48227 26.9508C3.92141 23.8845 6.53891 20.4037 8.69279 18.6873C10.7404 17.0578 17.627 12.7573 24.0018 9.13175C30.3765 5.50623 36.8961 1.97713 38.4897 1.28288C40.0834 0.588634 44.2173 0.0197351 47.6655 0.000450452ZM28.918 21.6861C22.5819 25.3791 16.5936 29.4771 15.5987 30.8078C14.6039 32.1288 13.5511 34.5201 13.2517 36.111C12.9523 37.7695 13.3772 40.5369 14.2562 42.6196C15.0965 44.606 17.2021 47.1322 18.931 48.2218C21.5871 49.89 23.0842 50.1214 28.5896 49.6682C34.6263 49.1668 35.2734 49.3018 37.2824 51.4906C38.4801 52.7923 45.7724 69.6086 53.4896 88.8547C61.2069 108.11 67.9486 124.618 68.4605 125.544C69.3202 127.096 71.4354 127.212 94.3844 126.99L119.371 126.749C95.1184 96.1154 82.794 80.543 76.3227 72.3952C69.861 64.2474 61.8347 54.0458 58.5025 49.7357C55.1606 45.4256 52.4368 41.2408 52.4368 40.4501C52.4368 39.6498 53.9726 37.056 55.8367 34.6647C57.7105 32.2734 59.5166 28.8021 59.845 26.9508C60.2797 24.5981 59.9126 22.4575 58.6474 19.8637C57.6525 17.8292 55.9719 15.6114 54.9095 14.9557C53.847 14.3001 51.6738 13.5094 50.0801 13.2008C48.4864 12.9019 45.6661 13.1719 43.802 13.8083C41.9379 14.4447 35.2444 17.9931 28.918 21.6861ZM136.206 262.706C134.787 265.618 133.627 268.116 133.627 268.251C133.627 268.386 154.162 268.492 179.265 268.492C208.849 268.492 225.008 268.154 225.192 267.527C225.356 266.997 224.486 264.49 223.26 261.954L221.038 257.355L138.776 257.403L136.206 262.706ZM201.489 38.4541C202.552 38.753 203.73 39.4377 204.107 39.968C204.483 40.4983 206.888 46.3512 209.458 52.9852C212.017 59.6095 215.919 68.9432 218.131 73.7162C220.343 78.4892 224.564 86.5116 227.51 91.5546C230.456 96.5879 233.788 103.424 234.927 106.741C236.058 110.058 237.642 116.567 238.443 121.205C239.245 125.843 239.902 131.59 239.911 138.32L245.455 132.39C248.498 129.131 252.97 124.136 255.404 121.301C257.838 118.466 262.02 113.317 264.695 109.875C267.381 106.423 272.162 99.7023 275.32 94.9294C278.478 90.1564 282.516 83.6478 284.283 80.4659C286.051 77.2839 288.407 73.6969 289.528 72.482C290.639 71.2767 292.425 70.3028 293.488 70.3125C294.55 70.3221 296.395 70.9778 297.593 71.7781C299.109 72.8002 299.756 74.179 299.737 76.3679C299.727 78.2192 298.134 82.2593 295.854 86.2513C293.729 89.9636 292.107 93.1166 292.252 93.2709C292.396 93.4155 293.604 93.1263 294.937 92.6249C296.26 92.1235 301.263 90.5325 306.044 89.0958C310.825 87.6687 318.427 84.5638 322.947 82.2111C327.457 79.8487 336.15 74.6226 342.264 70.5824C351.961 64.1799 353.671 63.37 355.786 64.1703C357.109 64.6717 358.732 66.1566 359.379 67.468C360.355 69.4446 360.229 71.0838 358.655 76.85C357.602 80.6973 355.632 86.338 354.27 89.385C352.898 92.432 349.904 97.7449 347.615 101.197C345.316 104.639 340.564 110.174 337.058 113.491C332.654 117.647 328.191 120.684 322.705 123.259C318.32 125.322 311.907 127.684 308.459 128.514C305.001 129.333 296.965 130.915 290.59 132.014C284.216 133.113 274.866 134.261 269.824 134.569C260.813 135.119 260.591 135.196 255.336 141.695L258.475 140.084C260.378 139.101 263.884 138.465 267.41 138.465C270.597 138.465 275.378 139.188 278.034 140.084C280.69 140.972 285.008 143.324 287.635 145.311C290.735 147.663 293.372 150.787 295.149 154.23C296.762 157.354 297.883 161.018 297.863 163.149C297.844 165.135 297.235 167.961 296.511 169.417C295.787 170.873 293.826 173.264 292.165 174.72C290.503 176.176 287.287 177.854 285.037 178.442C282.67 179.059 278.459 179.252 275.136 178.895C271.949 178.548 267.603 177.478 265.478 176.504C263.353 175.539 259.47 172.84 256.862 170.516C254.245 168.182 251.318 164.547 250.362 162.426C249.396 160.305 248.604 156.727 248.594 154.471C248.585 152.215 249.087 149.399 249.705 148.203C250.333 147.008 246.537 150.026 241.254 154.914C235.98 159.803 228.408 166.398 224.428 169.59C220.439 172.772 215.33 176.369 213.07 177.584C209.255 179.628 208.772 179.676 206.309 178.307C204.261 177.159 203.604 176.022 203.421 173.245C203.189 169.918 203.566 169.368 208.608 165.56C211.592 163.303 216.634 159.292 225.568 151.819L221.811 147.962C219.734 145.841 216.054 141.714 213.63 138.802C211.196 135.88 205.826 128.504 201.682 122.41C197.548 116.306 192.97 108.718 191.521 105.536C190.063 102.354 188.102 96.9253 187.146 93.483C185.929 89.0572 185.437 83.9564 185.475 76.1268C185.523 68.2394 186.093 62.9457 187.474 57.8063C188.537 53.824 190.7 48.0001 192.285 44.8567C194.168 41.1251 195.926 38.9363 197.365 38.5313C198.572 38.1842 200.427 38.1552 201.489 38.4541ZM199.075 82.8764C199.644 87.3794 200.997 93.4541 202.078 96.3757C203.16 99.2877 206.299 105.15 209.042 109.393C211.785 113.636 216.702 120.703 219.957 125.11C223.212 129.507 226.042 132.544 226.244 131.86C226.447 131.165 226.061 127.347 225.394 123.374C224.728 119.392 223.347 113.751 222.333 110.839C221.309 107.918 217.948 101.197 214.857 95.8936C211.766 90.5903 207.255 81.5844 204.831 75.8857C202.397 70.1871 200.195 65.5202 199.915 65.5202C199.644 65.5202 199.104 67.5837 198.727 70.1003C198.35 72.617 198.505 78.3638 199.075 82.8764ZM308.459 102.142C301.814 104.263 293.343 107.705 289.624 109.779C285.906 111.861 281.125 115.13 279 117.039L275.136 120.53C284.119 119.614 292.155 118.274 298.8 116.962C305.745 115.593 313.433 113.375 316.91 111.746C320.648 109.991 325.275 106.626 329.08 102.884C332.461 99.5673 336.073 95.0162 337.116 92.7598C338.159 90.5035 338.768 88.7197 338.459 88.7872C338.159 88.8547 334.006 91.0242 329.225 93.5891C324.444 96.1636 315.094 100.011 308.459 102.142ZM261.885 154.924C261.962 155.869 263.024 157.913 264.232 159.466C265.449 161.018 268.182 163.072 270.307 164.026C272.432 164.981 275.793 165.772 277.793 165.781C279.782 165.791 282.062 165.579 282.863 165.319C283.655 165.049 284.312 163.969 284.312 162.908C284.312 161.847 283.114 159.62 281.656 157.961C280.188 156.303 278.131 154.481 277.068 153.921C276.006 153.352 273.156 152.629 270.742 152.301C268.337 151.974 265.323 152.041 264.048 152.456C262.667 152.909 261.798 153.892 261.885 154.924ZM250.642 57.9895C255.027 58.2306 256.833 58.8766 259.818 61.2583C261.865 62.8879 264.85 66.5809 266.444 69.4543C269.119 74.2851 269.341 75.4133 269.341 84.3228C269.341 92.3645 268.994 94.6015 267.255 97.8221C266.106 99.9434 263.932 102.875 262.426 104.34C260.89 105.825 257.751 107.445 255.336 107.985C252.236 108.689 250.014 108.65 247.609 107.86C245.745 107.243 242.809 105.71 241.09 104.456C239.303 103.154 236.666 99.5577 234.976 96.1347C232.551 91.1978 231.982 88.7968 231.856 82.8764C231.769 78.8942 232.233 73.803 232.889 71.5467C233.546 69.2904 235.092 66.0891 236.328 64.421C237.555 62.7529 240.056 60.564 241.882 59.542C244.306 58.192 246.653 57.7774 250.642 57.9895ZM245.272 77.5731C244.866 79.6945 244.866 83.3778 245.272 85.7691C245.687 88.2569 247.068 91.3039 248.498 92.9141C250.207 94.833 251.521 95.5079 252.68 95.0837C253.607 94.7269 254.805 93.3577 255.336 92.0367C255.867 90.706 256.302 87.2348 256.302 84.3228C256.302 81.4012 255.626 77.6117 254.805 75.8857C253.984 74.1598 252.468 72.212 251.434 71.537C249.869 70.5342 249.261 70.6114 247.783 72.0192C246.808 72.9545 245.678 75.4518 245.272 77.5731Z" fill="black" fill-opacity="0.98"/>
</svg>
