<svg width="294" height="371" viewBox="0 0 294 371" fill="none" xmlns="http://www.w3.org/2000/svg">
<path opacity="0.99" fill-rule="evenodd" clip-rule="evenodd" d="M147.327 0.00037254C147.686 -0.0192679 149.156 0.740163 150.593 1.68945C152.03 2.63874 155.78 6.32458 158.923 9.8795C162.065 13.441 166.214 18.7766 168.134 21.7489C170.062 24.7211 172.525 28.9176 173.616 31.0781C174.707 33.2385 176.51 37.5856 177.633 40.7346C178.77 43.936 179.985 49.1342 180.39 52.5188C180.789 55.8643 180.913 60.9184 180.671 63.8121C180.423 66.6927 179.515 71.5504 178.646 74.6143C177.777 77.6782 175.301 83.7144 173.139 88.0353C170.957 92.4085 167.266 98.4185 164.803 101.594C162.379 104.73 158.714 109.149 152.945 115.532L152.912 144.338C152.893 160.181 153.03 173.216 153.206 173.307C153.389 173.399 154.781 172.633 156.31 171.612C157.838 170.584 159.413 168.895 159.818 167.847C160.216 166.8 161.477 162.702 162.62 158.741C163.757 154.78 166.364 148.148 168.402 144.01C170.447 139.873 173.759 134.269 175.758 131.572C177.764 128.868 181.004 125.084 182.964 123.159C184.924 121.228 188.433 118.386 190.771 116.835C193.11 115.283 197.226 113.123 199.918 112.036C202.616 110.949 207.169 109.43 210.044 108.651C213.585 107.695 218.112 107.119 224.09 106.87C229.493 106.648 235.438 106.825 239.443 107.322C243.036 107.767 248.765 108.848 252.182 109.725C255.599 110.602 258.911 111.82 259.551 112.442C260.342 113.208 260.708 114.517 260.688 116.514C260.668 118.137 260.231 121.228 259.708 123.388C259.192 125.548 258.016 129.673 257.101 132.554C256.187 135.434 253.685 141.326 251.535 145.647C249.392 149.968 246.093 155.566 244.205 158.086C242.324 160.607 239.299 164.142 237.476 165.942C235.66 167.743 232.57 170.289 230.603 171.605C228.637 172.915 224.828 175.088 222.13 176.437C219.438 177.779 215.172 179.409 212.657 180.051C210.142 180.692 204.262 181.563 199.591 181.995C194.92 182.427 189.04 182.578 186.525 182.342C184.01 182.106 180.482 181.753 178.685 181.563C176.889 181.367 173.217 180.784 170.519 180.26C165.926 179.376 165.475 179.389 163.333 180.555C162.078 181.236 159.354 182.866 157.29 184.175C155.225 185.491 153.383 186.859 153.206 187.219C153.03 187.579 152.873 210.336 152.867 237.793C152.86 265.251 153.01 287.785 153.193 287.877C153.383 287.968 156.035 286.417 159.086 284.439C163.868 281.336 164.731 280.498 165.279 278.384C165.632 277.035 166.54 273.716 167.285 271.018C168.036 268.315 169.258 264.341 170.003 262.18C170.741 260.02 172.629 255.306 174.191 251.705C175.758 248.105 178.437 242.723 180.149 239.744C181.86 236.772 184.434 232.805 185.872 230.932C187.309 229.06 190.543 225.348 193.058 222.677C195.573 220.012 199.251 216.615 201.224 215.128C203.197 213.642 206.137 211.573 207.757 210.533C209.377 209.492 212.017 208.058 213.637 207.351C215.257 206.644 218.635 205.341 221.15 204.464C223.665 203.586 228.513 202.257 231.93 201.511C236.365 200.542 241.487 200.058 249.895 199.815C258.957 199.56 263.451 199.743 269.495 200.608C273.806 201.223 279.242 202.159 281.581 202.683C283.92 203.213 287.225 204.071 288.93 204.595C290.642 205.125 292.478 206.212 293.02 207.023C293.562 207.835 294 209.308 294 210.297C293.993 211.285 293.223 215.266 292.282 219.135C291.348 223.004 289.558 229.119 288.31 232.72C287.062 236.32 284.945 241.623 283.612 244.504C282.273 247.385 279.542 252.537 277.543 255.961C275.538 259.385 272.062 264.387 269.808 267.09C267.554 269.788 263.628 273.879 261.073 276.171C258.519 278.469 254.808 281.389 252.835 282.659C250.862 283.935 247.184 285.919 244.669 287.071C242.154 288.224 237.888 289.906 235.196 290.816C232.504 291.726 227.356 292.996 223.763 293.644C219.262 294.463 213.872 294.836 206.451 294.855C200.519 294.868 193.025 294.502 189.791 294.044C186.558 293.579 181.854 292.806 179.339 292.322C176.823 291.831 173.812 291.261 172.642 291.045C170.826 290.718 169.415 291.327 162.843 295.307C158.622 297.867 154.631 300.446 153.977 301.036C152.867 302.044 152.769 304.25 152.462 334.523C152.226 357.39 151.906 367.407 151.364 368.54C150.835 369.653 149.777 370.34 147.98 370.739C146.238 371.128 144.877 371.082 143.897 370.602C143.087 370.203 142.133 369.135 141.774 368.239C141.369 367.224 141.114 354.3 141.107 334.359C141.107 316.624 140.885 301.808 140.617 301.435C140.356 301.062 136.756 298.685 132.627 296.158C128.498 293.631 124.598 291.359 123.971 291.111C123.344 290.862 121.286 290.94 119.398 291.287C117.51 291.628 115.236 292.073 114.335 292.263C113.44 292.459 111.081 292.898 109.108 293.245C107.135 293.585 101.987 294.214 97.6755 294.646C93.1089 295.098 86.9744 295.235 82.9762 294.986C79.2066 294.744 73.4706 294.096 70.2367 293.553C67.0029 293.003 62.2991 291.942 59.7839 291.202C57.2687 290.456 52.8589 288.76 49.9843 287.431C47.1098 286.102 42.8437 283.719 40.5114 282.135C38.1791 280.551 34.501 277.624 32.3451 275.634C30.1892 273.644 26.9227 270.246 25.0934 268.079C23.2576 265.919 20.3112 261.932 18.5473 259.234C16.7834 256.53 13.8239 251.378 11.9751 247.777C10.1262 244.177 7.3954 237.695 5.89934 233.374C4.4098 229.053 2.47603 222.5 1.6006 218.808C0.725176 215.115 0.00653304 211.285 0 210.297C0 209.308 0.437714 207.835 0.979956 207.023C1.61366 206.081 3.55398 205.066 6.37626 204.202C8.80002 203.462 15.4899 202.107 21.2389 201.197C30.6138 199.704 32.9723 199.567 44.1046 199.868C53.0679 200.117 58.1506 200.568 62.3971 201.511C65.631 202.231 70.191 203.475 72.5233 204.267C74.8556 205.066 78.8277 206.742 81.3429 207.992C83.8581 209.243 87.974 211.704 90.4892 213.452C93.0044 215.2 97.3031 218.926 100.04 221.728C102.784 224.536 106.691 229.034 108.729 231.738C110.768 234.435 114.465 240.772 116.948 245.813C119.476 250.953 122.743 259.005 124.383 264.144C125.996 269.185 127.773 275.005 128.335 277.074C129.341 280.773 129.465 280.911 141.12 288.695L141.14 238.121C141.159 190.427 141.094 187.488 139.997 186.473C139.356 185.884 136.848 184.188 134.424 182.709C132 181.229 129.204 179.966 128.218 179.907C127.231 179.848 123.331 180.267 119.561 180.843C115.792 181.419 109.468 182.067 105.515 182.296C100.759 182.565 95.7875 182.381 90.8158 181.746C86.687 181.223 80.9509 180.011 78.0764 179.049C75.2019 178.093 70.7921 176.123 68.2768 174.669C65.7616 173.216 61.8222 170.512 59.5226 168.659C57.2229 166.806 53.8453 163.382 52.0096 161.045C50.1803 158.715 47.2731 154.446 45.5549 151.552C43.8367 148.665 41.132 143.205 39.551 139.428C37.9635 135.65 35.9121 129.607 34.9845 126.007C34.0568 122.406 33.2989 118.137 33.2924 116.514C33.2859 114.524 33.6582 113.208 34.4487 112.468C35.089 111.859 37.8198 110.766 40.5114 110.026C43.2096 109.293 48.4229 108.239 52.1076 107.689C55.7922 107.145 62.1096 106.694 66.1536 106.687C70.1976 106.681 76.0773 107.126 79.2197 107.669C82.3621 108.213 87.8041 109.699 91.3058 110.962C94.8075 112.232 99.7334 114.563 102.249 116.147C104.764 117.732 109.05 121.332 111.774 124.154C114.498 126.976 118.202 131.486 120.012 134.19C121.822 136.888 124.337 141.163 125.604 143.683C126.872 146.204 128.812 150.917 129.916 154.158C131.02 157.399 132.523 162.184 133.254 164.797C134.489 169.189 134.829 169.713 141.12 174.126L141.284 145.608C141.375 129.922 141.225 116.514 140.957 115.82C140.689 115.119 138.768 112.71 136.697 110.458C134.62 108.206 131.869 105.044 130.582 103.42C129.289 101.797 126.813 98.2614 125.075 95.5641C123.337 92.8603 120.652 87.9305 119.104 84.5982C117.562 81.2659 115.641 76.2576 114.838 73.4686C113.629 69.2525 113.387 66.8498 113.427 59.2293C113.466 51.2815 113.708 49.2782 115.217 44.1717C116.177 40.931 118.255 35.6281 119.836 32.3874C121.41 29.1468 124.252 24.1384 126.153 21.2579C128.048 18.3773 130.615 14.842 131.863 13.4017C133.104 11.9614 136.064 8.74036 138.435 6.24603C140.813 3.7517 143.635 1.33592 144.713 0.871099C145.791 0.412822 146.967 0.0134662 147.327 0.00037254ZM137.083 25.2514C135.045 28.0927 132.196 32.7802 130.759 35.6608C129.322 38.5414 127.662 42.3713 127.074 44.1717C126.48 45.972 125.709 48.9181 125.356 50.7185C125.01 52.5188 124.729 56.7874 124.735 60.2113C124.748 64.4799 125.18 67.9693 126.12 71.3409C126.872 74.0382 128.74 78.9025 130.282 82.1431C131.817 85.3838 134.809 90.3528 136.933 93.1876L140.794 98.3399L141.447 58.1295C144.289 55.6351 145.863 54.9739 147 54.9739C148.143 54.9739 149.711 55.6351 150.757 56.5517L152.553 58.136C152.788 88.9191 153.004 97.9275 153.193 98.0191C153.383 98.1108 155.179 95.898 157.192 93.109C159.21 90.3201 161.817 86.1171 162.993 83.7798C164.169 81.4426 165.959 77.3116 166.972 74.6143C168.703 70.0185 168.82 69.0561 168.853 59.5567C168.879 50.6857 168.703 48.8723 167.422 45.1537C166.612 42.8165 164.848 38.6855 163.502 35.9751C162.15 33.2647 159.282 28.5837 157.126 25.5656C154.97 22.5476 151.959 18.6522 150.43 16.9042C148.901 15.1562 147.385 13.729 147.059 13.729C146.732 13.729 145.184 15.1562 143.629 16.9042C142.068 18.6522 139.128 22.4035 137.083 25.2514ZM48.3511 119.683C46.5741 120.062 46.0188 120.527 45.8685 121.778C45.764 122.661 46.7505 126.485 48.0636 130.262C49.3767 134.04 51.1929 138.609 52.0945 140.41C53.0026 142.21 55.0735 145.745 56.6937 148.266C58.3074 150.786 61.8745 155.101 64.6118 157.863C68.5316 161.811 70.7594 163.435 75.1365 165.536C78.194 167.003 82.4535 168.653 84.6094 169.196C86.7653 169.733 92.2792 170.623 96.8589 171.173C103.353 171.946 105.874 171.998 108.292 171.422C109.997 171.023 111.924 170.505 112.571 170.276C113.427 169.982 109.422 167.18 97.7082 159.886C86.0859 152.652 81.3103 149.32 80.363 147.775C79.6509 146.603 79.0629 145.281 79.0564 144.829C79.0564 144.377 79.7881 143.127 80.6896 142.046C81.9766 140.501 82.8455 140.082 84.7728 140.089C86.798 140.089 90.0123 141.843 103.392 150.236C112.283 155.814 119.783 160.233 120.051 160.057C120.319 159.88 119.587 157.451 118.418 154.656C117.249 151.86 114.897 147.159 113.192 144.207C111.486 141.248 108.161 136.685 105.809 134.059C103.457 131.427 99.3415 127.794 96.6629 125.981C93.4879 123.827 89.8685 122.079 86.2427 120.946C83.1852 119.997 78.194 118.903 75.1365 118.517C72.0791 118.131 67.6693 117.856 65.337 117.902C63.0047 117.954 58.7386 118.268 55.8641 118.602C52.9895 118.93 49.6119 119.421 48.3511 119.683ZM209.064 120.435C207.444 120.867 203.916 122.295 201.224 123.604C197.52 125.398 194.953 127.336 190.7 131.558C187.603 134.629 184.245 138.459 183.232 140.082C182.226 141.706 180.142 145.529 178.607 148.593C177.072 151.651 175.36 155.48 174.805 157.104C174.243 158.728 173.864 160.135 173.949 160.233C174.04 160.332 176.464 158.937 179.339 157.13C182.213 155.323 185.885 153.097 187.505 152.194C189.125 151.284 194.116 148.181 198.611 145.3C204.817 141.313 207.326 140.056 209.064 140.056C210.606 140.05 211.808 140.534 212.749 141.536C213.513 142.361 214.33 143.618 214.558 144.338C214.82 145.169 214.434 146.452 213.487 147.86C212.448 149.412 207.503 152.881 196.978 159.448C188.713 164.607 181.514 169.091 180.972 169.419C180.273 169.838 181.2 170.224 184.238 170.754C186.577 171.16 189.955 171.494 191.751 171.487C193.548 171.487 198.108 171.068 201.878 170.564C205.647 170.06 211.089 168.797 213.964 167.756C216.838 166.715 220.928 164.698 223.058 163.284C225.187 161.864 228.826 158.643 231.146 156.122C233.465 153.602 236.352 149.994 237.561 148.102C238.776 146.21 240.69 142.825 241.814 140.573C242.938 138.321 245.015 132.946 246.426 128.625C247.844 124.305 248.759 120.573 248.471 120.337C248.177 120.102 245.727 119.578 243.036 119.165C240.338 118.759 234.608 118.308 230.296 118.164C225.579 118.007 220.379 118.255 217.23 118.773C214.356 119.25 210.684 119.997 209.064 120.435ZM20.259 212.51C17.2015 213.086 14.1898 213.819 13.5626 214.14C12.9354 214.454 12.4128 215.083 12.4063 215.534C12.3997 215.986 13.249 219.299 14.2878 222.899C15.3265 226.5 17.1166 231.803 18.2664 234.684C19.4162 237.564 21.7028 242.429 23.3556 245.486C25.002 248.543 27.4388 252.674 28.765 254.651C30.0912 256.629 33.5014 260.727 36.3368 263.745C39.1721 266.763 43.2553 270.488 45.4112 272.014C47.5671 273.539 50.6507 275.457 52.2709 276.269C53.8911 277.087 56.8309 278.318 58.8039 279.012C60.7769 279.7 64.5987 280.871 67.2969 281.605C71.282 282.698 74.7576 282.999 85.9161 283.228C95.5588 283.431 101.092 283.254 104.535 282.646L109.435 281.775C67.5843 255.575 62.1946 251.895 61.28 250.232C60.2216 248.301 60.202 247.921 61.0905 246.141C61.6262 245.06 62.7303 243.731 63.5404 243.188C64.3505 242.645 65.448 242.199 65.9903 242.199C66.526 242.193 71.086 244.727 76.1165 247.83C81.1469 250.926 87.6146 254.959 90.4892 256.786C93.3637 258.612 99.9752 262.717 105.189 265.919C110.402 269.113 114.759 271.64 114.871 271.536C114.988 271.431 114.746 270.167 114.335 268.727C113.917 267.287 112.427 263.162 111.023 259.562C109.611 255.961 106.946 250.363 105.097 247.123C103.248 243.882 100.53 239.607 99.0605 237.63C97.5906 235.653 94.4743 232.006 92.1355 229.538C89.7901 227.063 85.8181 223.665 83.3028 221.983C80.7876 220.3 76.0838 217.806 72.85 216.438C69.6161 215.076 64.7621 213.367 62.0704 212.647C58.0918 211.587 54.5901 211.299 43.4513 211.122C35.9056 210.997 28.8499 211.03 27.772 211.181C26.694 211.338 23.3099 211.934 20.259 212.51ZM232.55 212.961C229.153 213.662 223.874 215.292 220.823 216.582C217.772 217.872 213.212 220.3 210.697 221.976C208.182 223.659 203.955 227.351 201.309 230.186C198.657 233.021 194.632 238.134 192.359 241.558C190.092 244.982 187.067 250.285 185.649 253.342C184.225 256.399 182.135 261.702 181.004 265.126C179.868 268.55 179.103 271.418 179.306 271.509C179.502 271.601 181.403 270.567 183.526 269.218C185.656 267.869 188.223 266.285 189.243 265.696C190.262 265.113 194.332 262.58 198.284 260.072C202.237 257.565 210.318 252.517 216.25 248.851C222.182 245.185 227.546 242.193 228.173 242.199C228.8 242.206 230.198 243.096 231.276 244.177C232.354 245.257 233.269 246.658 233.315 247.286C233.354 247.915 233.328 248.871 233.256 249.414C233.184 249.957 232.485 251.07 231.707 251.902C230.93 252.727 227.062 255.345 223.11 257.722C219.157 260.098 214.016 263.293 211.677 264.832C209.338 266.364 205.373 268.858 202.858 270.37C200.342 271.889 195.227 275.084 191.497 277.474L184.702 281.821C192.189 283.012 199.362 283.385 205.471 283.418C212.958 283.457 218.387 283.143 222.13 282.456C225.181 281.893 230.035 280.682 232.91 279.758C235.784 278.842 239.606 277.343 241.402 276.439C243.199 275.529 246.433 273.539 248.589 272.007C250.745 270.475 254.723 266.901 257.428 264.066C260.139 261.224 263.543 257.139 265 254.979C266.457 252.818 268.998 248.543 270.644 245.486C272.297 242.429 274.806 236.975 276.23 233.374C277.648 229.774 279.438 224.543 280.196 221.754C280.96 218.965 281.581 216.091 281.581 215.371C281.581 214.65 281.065 213.924 280.437 213.754C279.81 213.577 277.086 212.961 274.394 212.379C271.004 211.646 265.261 211.253 255.775 211.109C248.23 210.991 241.304 211.076 240.39 211.292C239.469 211.508 235.941 212.261 232.55 212.961Z" fill="black"/>
</svg>
