<svg width="337" height="342" viewBox="0 0 337 342" fill="none" xmlns="http://www.w3.org/2000/svg">
<path fill-rule="evenodd" clip-rule="evenodd" d="M168.584 0.0023063C173.631 -0.0308292 176.154 0.287268 179.181 1.33435C181.367 2.08321 184.612 3.50804 186.4 4.48885C188.182 5.47629 191.461 8.25303 193.686 10.6653C196.355 13.568 199.746 18.6112 203.687 25.5696C206.966 31.3551 211.046 38.625 215.868 47.3661L239.043 47.6975C261.171 48.0156 262.291 48.0885 264.079 49.4073C265.105 50.1627 268.51 55.0801 271.649 60.342C274.782 65.5972 279.22 73.1786 281.505 77.188C283.796 81.1974 288.91 90.144 292.87 97.0693C297.745 105.592 300.07 110.304 300.05 111.649C300.037 112.742 300.09 133.021 300.169 156.713C300.302 196.111 300.222 199.975 299.196 201.943C298.547 203.176 296.937 204.66 295.42 205.422C293.963 206.151 291.95 206.748 290.95 206.754C289.95 206.754 285.85 204.938 281.843 202.718C277.836 200.498 271.133 196.668 266.94 194.196C262.748 191.731 256.045 187.827 252.038 185.528C248.03 183.228 240.877 179.126 236.142 176.415C231.406 173.698 223.968 169.344 219.616 166.747C214.185 163.499 211.165 161.246 210.013 159.563C209.085 158.211 206.456 153.883 204.177 149.953C201.899 146.017 197.561 138.475 194.54 133.187C191.52 127.899 186.46 119.104 183.294 113.637C178.174 104.803 177.519 103.286 177.366 100.032C177.201 96.5458 177.452 95.9096 182.426 87.1088C185.308 82.0192 189.361 75.021 191.434 71.555C193.507 68.089 196.216 63.4037 199.713 57.0152L198.309 54.1788C197.534 52.6214 194.057 46.4185 190.586 40.4077C187.109 34.3969 183.387 27.9819 182.314 26.1594C181.029 23.9857 179.241 22.1633 177.121 20.8578C174.227 19.0817 173.319 18.8696 168.584 18.8829C164.338 18.8895 162.729 19.1944 160.49 20.4071C158.947 21.2355 156.715 23.2634 155.522 24.9069C154.324 26.5504 152.747 28.9958 152.012 30.3411C151.277 31.6864 148.661 36.3652 146.197 40.739C143.733 45.1129 140.613 50.1561 139.256 51.9454C137.732 53.9601 135.904 55.5241 134.473 56.041C132.771 56.6573 131.453 56.6971 129.506 56.2C128.049 55.8289 126.022 54.7355 125.009 53.7679C123.989 52.8003 122.883 50.9646 122.538 49.6856C122.147 48.2343 122.154 46.498 122.545 45.0466C122.896 43.7676 124.254 40.9378 125.565 38.7509C126.877 36.564 130.135 30.8978 132.804 26.1594C135.474 21.4211 138.971 15.7549 140.567 13.568C142.276 11.2352 145.382 8.23316 148.084 6.3113C150.813 4.36293 154.575 2.41457 157.324 1.53316C160.801 0.413184 163.61 0.0288147 168.584 0.0023063ZM232.088 75.5313C234.731 80.0907 239.526 88.4408 242.752 94.0871C245.977 99.7334 250.461 107.64 252.72 111.649C254.978 115.658 257.522 120.132 258.363 121.59C259.204 123.048 260.774 125.884 261.86 127.885C263.516 130.947 263.761 132.007 263.423 134.512C263.178 136.308 262.416 138.111 261.502 139.052C260.668 139.9 259.091 141.06 257.999 141.617C256.674 142.293 255.018 142.511 253.031 142.273C250.667 141.988 249.567 141.391 247.713 139.37C246.428 137.972 242.434 131.616 238.837 125.234C235.241 118.859 231.326 111.994 230.141 109.992C228.955 107.991 224.922 100.979 221.18 94.4185C217.444 87.8577 213.616 81.0781 212.675 79.3485C211.741 77.6188 210.748 76.2006 210.476 76.2006C210.205 76.194 209.443 77.3139 208.781 78.6791C208.125 80.0443 205.29 85.114 202.488 89.9452C199.687 94.7763 197.402 99.0972 197.408 99.5545C197.415 100.012 198.852 102.914 200.607 106.016C202.363 109.117 207.237 117.613 211.437 124.903C215.642 132.193 220.411 140.397 222.041 143.128L225.001 148.098C240.824 157.396 249.441 162.439 254.356 165.308C259.27 168.171 264.94 171.405 266.94 172.499C268.94 173.586 273.04 175.918 276.047 177.688C279.054 179.457 281.664 180.902 281.843 180.902C282.021 180.902 282.101 166.216 282.008 148.264C281.856 117.693 281.763 115.479 280.591 113.306C279.902 112.027 275.458 104.28 270.709 96.0752C265.966 87.8775 260.257 78.0297 258.032 74.2058L253.985 67.2474C233.638 66.7371 227.631 66.7371 227.511 66.916C227.392 67.095 229.452 70.9785 232.088 75.5313ZM115.365 68.3939C117.564 68.5198 118.962 69.05 120.253 70.2296C121.247 71.1441 122.465 72.8539 122.969 74.0402C123.704 75.7897 123.876 84.2658 123.876 119.27C123.876 159.212 123.79 162.578 122.677 165.494C122.022 167.224 117.518 175.501 112.663 183.884C107.815 192.267 102.284 201.81 100.37 205.091C98.4558 208.371 95.5416 213.441 93.8857 216.357C92.2365 219.273 89.8124 222.626 86.1232 225.966H62.9415C41.7005 225.966 39.6738 226.066 38.72 227.126C38.1438 227.762 36.1634 230.824 34.3089 233.919C32.4543 237.014 28.9837 242.978 26.5993 247.173C24.2149 251.368 21.506 256.285 20.5787 258.108C19.2276 260.758 18.9295 262.21 19.0752 265.397C19.1812 267.584 19.8303 270.567 20.5257 272.025C21.2212 273.482 22.632 275.51 23.6586 276.531C24.6786 277.545 26.5596 278.89 27.8379 279.513C29.7984 280.467 33.0438 280.693 48.7345 280.971C64.9418 281.263 67.5381 281.448 69.1012 282.462C70.0815 283.098 71.5055 284.589 72.2539 285.776C73.3137 287.452 73.5455 288.659 73.2938 291.243C73.1216 293.066 72.4129 295.305 71.7241 296.213C71.0286 297.128 69.439 298.394 68.1938 299.03C66.2002 300.044 63.8026 300.19 48.7014 300.176C35.5011 300.17 30.474 299.931 27.1756 299.149C24.811 298.586 21.0953 297.174 18.9229 296.008C16.7239 294.835 12.9486 291.833 10.4119 289.255C7.35855 286.147 5.10662 283.085 3.5965 279.977C2.09521 276.884 1.10171 273.571 0.615998 270.036C0.218599 267.12 0.0596395 263.244 0.264963 261.421C0.470286 259.599 1.24522 256.173 1.98703 253.8C2.72885 251.428 5.3848 246.066 7.88842 241.871C10.392 237.676 14.5515 230.671 17.1213 226.298C19.6912 221.924 21.9829 217.901 22.2014 217.351C22.4399 216.768 21.1218 213.885 19.0222 210.393C17.0419 207.112 12.942 200.107 9.90192 194.819C6.86181 189.53 3.38455 183.268 2.1791 180.902C0.967035 178.536 -0.00658974 175.773 3.3593e-05 174.772C0.0132803 173.771 1.17236 170.789 2.57651 168.145C3.98728 165.501 8.77595 157.078 13.2335 149.423C17.6843 141.769 23.7645 131.225 26.7384 125.99C29.7123 120.755 33.1829 115.274 34.4612 113.816C35.7395 112.351 39.0114 109.899 41.7469 108.362C44.4757 106.831 50.589 103.332 55.3247 100.595C60.0604 97.8579 73.8104 89.859 85.8781 82.8211C97.9458 75.7765 108.828 69.6133 110.053 69.1162C111.279 68.6258 113.67 68.3011 115.365 68.3939ZM86.1232 104.525C80.4801 107.812 72.5785 112.371 68.5714 114.658C64.5643 116.951 58.3913 120.489 54.8478 122.524L48.4166 126.229C42.3695 136.501 39.3426 141.723 37.7928 144.453C36.2429 147.19 32.1298 154.347 28.6459 160.358C25.1621 166.369 21.8636 172.042 21.3139 172.95C20.3469 174.54 20.5257 174.997 25.8178 184.547C28.8513 190.014 31.739 195.309 32.2358 196.31C32.7325 197.311 33.2889 198.132 33.4677 198.132C33.6465 198.132 35.1765 195.674 36.8589 192.665C38.5412 189.656 42.8132 182.274 46.3567 176.263C49.8936 170.252 54.6889 162.048 57.0004 158.039C59.312 154.029 63.1071 147.468 65.4319 143.459C67.7501 139.45 70.3067 135.48 71.1015 134.645C71.8963 133.803 73.5852 132.789 74.8635 132.385C76.5392 131.855 77.9169 131.848 79.831 132.365C81.414 132.796 83.348 134.035 84.6329 135.453C86.3087 137.302 86.7855 138.416 86.7855 140.477C86.7855 141.935 86.2424 144.248 85.5801 145.613C84.9177 146.978 82.3413 151.677 79.8509 156.05C77.3671 160.424 74.3867 165.494 73.2276 167.316C72.0751 169.139 68.8231 174.653 66.0015 179.577C63.1734 184.501 58.3648 192.844 55.3048 198.132L49.7412 207.742C69.4655 208.033 75.7908 207.974 76.5194 207.795C77.3208 207.603 78.5859 205.966 79.7317 203.633C80.7716 201.519 83.8779 195.912 86.6398 191.174C89.3951 186.436 94.654 177.489 98.33 171.293L105 160.033C105.337 120.483 105.251 105.645 105.026 101.543C104.801 97.4404 104.404 94.1136 104.145 94.1468C103.887 94.1733 102.032 95.1806 100.032 96.3801C98.0319 97.5796 91.7663 101.244 86.1232 104.525ZM310.654 218.305C312.76 218.524 314.184 219.16 315.502 220.472C316.529 221.486 318.297 223.965 319.43 225.966C320.563 227.968 324.179 234.237 327.464 239.883C330.749 245.529 334.107 252.09 334.929 254.463C335.75 256.835 336.618 260.56 336.863 262.747C337.167 265.457 336.969 268.307 336.233 271.693C335.644 274.43 334.147 278.751 332.915 281.302C331.319 284.596 329.352 287.214 326.126 290.335C323.629 292.747 320.245 295.484 318.602 296.406C316.959 297.333 313.979 298.566 311.979 299.143C308.985 300.011 304.633 300.203 287.638 300.196C271.881 300.19 266.775 300.388 266.258 301.018C265.887 301.475 263.403 305.577 260.741 310.13C258.078 314.69 253.548 322.589 250.673 327.692C247.799 332.795 244.487 338.017 241.208 341.609L170.571 342L166.265 339.787C163.901 338.567 155.847 334.028 148.382 329.7C140.918 325.366 129.44 318.712 122.883 314.908C116.326 311.111 107.384 305.955 103.013 303.457C98.6413 300.958 94.1705 297.983 93.0777 296.856C91.2894 295.007 91.0907 294.378 91.0907 290.547C91.0907 286.71 91.2828 286.107 93.0777 284.318C94.1705 283.231 99.6878 279.685 105.331 276.445C110.974 273.197 118.578 268.83 122.22 266.729C125.863 264.635 133.765 260.082 139.772 256.61C145.78 253.144 154.277 248.207 158.649 245.642C163.02 243.077 167.564 240.579 168.749 240.102C170.445 239.406 178.221 239.22 205.178 239.227C231.532 239.24 239.837 239.432 241.109 240.082C242.017 240.546 243.845 242.554 245.163 244.542C246.481 246.537 251.66 255.324 256.667 264.072C261.681 272.82 266.112 280.361 266.523 280.832C267.106 281.501 271.59 281.687 286.645 281.66C305.647 281.634 306.077 281.607 309.164 280.07C310.893 279.208 313.065 277.644 313.986 276.591C314.913 275.537 316.204 273.337 316.86 271.693C317.715 269.566 317.993 267.472 317.821 264.403C317.602 260.546 317.171 259.4 313.694 253.469C311.555 249.824 308.071 243.859 305.958 240.214C303.839 236.57 301.62 232.249 301.024 230.605C300.123 228.107 300.077 227.192 300.746 224.972C301.189 223.514 301.905 221.745 302.342 221.042C302.772 220.333 304.157 219.359 305.402 218.875C306.68 218.378 308.972 218.133 310.654 218.305ZM165.934 263.038C161.199 265.722 154.191 269.771 150.369 272.031C146.548 274.291 138.792 278.685 133.149 281.793C127.506 284.894 121.916 287.923 120.73 288.513C119.545 289.103 118.578 290.03 118.578 290.58C118.578 291.13 118.948 291.574 119.405 291.574C119.862 291.568 124.254 293.927 129.175 296.803C134.096 299.679 140.799 303.616 144.077 305.538C147.356 307.466 153.317 310.886 157.324 313.132C161.331 315.386 166.835 318.533 169.551 320.137L174.485 323.053H231.505C237.665 312.523 240.5 307.645 241.771 305.425C243.043 303.205 244.162 301.117 244.255 300.786C244.355 300.435 229.604 300.183 208.82 300.176C182.466 300.17 172.551 299.958 170.63 299.348C169.067 298.858 167.358 297.632 166.325 296.266C164.981 294.49 164.61 293.238 164.61 290.501C164.61 287.399 164.868 286.75 166.928 284.669C168.345 283.231 170.405 282.018 172.226 281.534C174.452 280.951 183.983 280.865 209.814 281.19C228.849 281.435 244.427 281.408 244.441 281.137C244.454 280.865 241.738 275.868 238.42 270.036C235.095 264.205 232.029 259.082 231.611 258.658C231.062 258.101 223.763 257.823 205.674 257.664C191.832 257.544 179.168 257.604 177.525 257.796C175.472 258.041 171.869 259.665 165.934 263.038Z" fill="black"/>
</svg>
