<svg width="453" height="305" viewBox="0 0 453 305" fill="none" xmlns="http://www.w3.org/2000/svg">
<path d="M372.321 172.892C372.868 172.268 374.069 171.613 374.981 171.438C375.9 171.256 377.845 171.058 379.304 170.982C380.975 170.906 382.479 171.362 383.338 172.215C384.348 173.204 384.561 174.086 384.143 175.471C383.832 176.521 383.551 177.716 383.528 178.135C383.505 178.553 383.14 179.519 382.723 180.273C382.046 181.505 381.028 181.627 373.453 181.414C367.482 181.247 364.648 180.866 363.956 180.136C363.121 179.253 363.683 179.169 367.527 179.603C371.767 180.075 372.147 179.984 372.982 178.363C373.719 176.925 373.651 176.384 372.603 175.319C371.539 174.239 371.493 173.835 372.321 172.892Z" fill="#F4F4F4"/>
<path d="M392.629 177.876C395.706 176.369 398.434 174.33 399.946 172.427C401.268 170.753 402.552 169.559 402.795 169.779C403.038 169.992 402.21 171.621 400.956 173.394C399.452 175.517 397.256 177.305 394.498 178.644C392.204 179.763 389.469 180.942 388.42 181.262C387.154 181.647 386.721 181.579 387.121 181.056C387.455 180.623 389.932 179.192 392.629 177.876Z" fill="#F4F4F4"/>
<path d="M391.771 162.155C392.059 161.318 392.485 159.865 392.705 158.921C392.933 157.978 393.374 157.209 393.685 157.209C393.997 157.209 394.095 158.153 393.898 159.302C393.708 160.451 393.032 161.912 392.394 162.536C391.368 163.555 391.3 163.51 391.771 162.155Z" fill="#F4F4F4"/>
<path d="M403.335 135.903C402.248 134.861 401.359 133.742 401.352 133.43C401.344 133.118 403.904 132.86 407.035 132.86C410.172 132.86 413.842 133.316 415.202 133.879C416.562 134.442 418.667 136.238 419.875 137.874C421.09 139.51 423.142 141.968 424.433 143.337C425.732 144.707 427.13 145.826 427.548 145.826C427.966 145.826 430.876 142.881 439.704 132.738L443.883 133.248C446.177 133.529 448.669 134.328 449.414 135.021C450.295 135.85 450.584 136.809 450.25 137.806C449.969 138.643 447.051 142.835 443.769 147.127C440.487 151.418 437.615 155.695 437.387 156.638C437.053 157.985 438.679 160.504 444.985 168.433C449.391 173.98 453 178.857 453 179.276C453 179.694 452.658 180.037 452.24 180.037C451.822 180.037 450.713 179.535 449.771 178.926C448.829 178.317 446.01 177.587 443.503 177.305C440.996 177.016 438.261 176.415 437.425 175.966C436.589 175.517 435.731 175.205 435.526 175.281C435.32 175.35 433.611 173.881 431.727 172.009C429.843 170.137 427.966 168.6 427.548 168.6C427.13 168.6 425.421 170.015 423.749 171.75C422.078 173.478 419.259 175.54 417.481 176.324C415.703 177.115 413.994 178.165 413.682 178.667C413.265 179.337 413.667 179.443 415.202 179.048C416.44 178.728 417.291 178.827 417.291 179.276C417.291 179.694 416.182 180.227 414.822 180.463C413.462 180.691 409.96 180.783 407.042 180.653C402.674 180.455 401.693 180.181 401.534 179.086C401.42 178.294 402.028 177.488 403.046 177.092C403.988 176.734 405.758 174.939 406.989 173.097C408.212 171.263 410.636 168.227 412.361 166.34C414.093 164.453 416.083 162.064 416.79 161.014C417.489 159.971 418.074 158.259 418.081 157.209C418.089 156.167 417.063 153.937 415.802 152.263C414.541 150.589 411.662 146.655 409.405 143.512C407.156 140.377 404.421 136.953 403.335 135.903Z" fill="#F4F4F4"/>
<path d="M389.787 136.664C389.453 136.664 389.18 135.812 389.18 134.762C389.18 133.72 389.438 132.844 389.75 132.829C390.061 132.806 390.737 133.233 391.254 133.78C391.968 134.534 391.976 134.983 391.292 135.713C390.798 136.238 390.122 136.664 389.787 136.664Z" fill="#F4F4F4"/>
<path fill-rule="evenodd" clip-rule="evenodd" d="M73.1203 131.414C73.7433 131.376 77.337 131.711 81.0978 132.144C84.8586 132.578 89.3032 133.552 90.9746 134.305C92.6461 135.051 95.404 137.174 97.1059 139.023C98.823 140.887 100.965 144.395 101.923 146.937C103.374 150.757 103.609 152.621 103.374 158.351C103.154 163.776 102.683 166.066 101.102 169.384C100.008 171.682 97.7897 174.695 96.179 176.072C94.4012 177.587 91.1646 179.192 87.9356 180.166C83.4606 181.505 81.1737 181.711 73.5002 181.445C65.3555 181.171 63.8664 180.897 59.513 178.873C55.7294 177.115 53.9363 175.677 51.4671 172.428C49.6893 170.084 47.9038 166.652 47.41 164.628C46.9238 162.642 46.5287 158.876 46.5211 156.258C46.5135 153.64 47.0301 149.706 47.6607 147.507C48.2913 145.308 49.7805 142.402 50.9733 141.04C52.1585 139.677 54.8101 137.448 56.8614 136.086C59.4142 134.389 62.3773 133.27 66.2824 132.54C69.4127 131.954 72.4973 131.444 73.1203 131.414V131.414ZM63.6537 147.317C62.7572 148.36 61.7619 150.932 61.4428 153.024C61.1161 155.117 61.0857 158.198 61.3668 159.872C61.6555 161.546 62.4988 163.943 63.251 165.199C64.0184 166.47 66.2521 168.273 68.3034 169.262C71.3424 170.738 72.9227 171.005 77.4053 170.784C81.508 170.586 83.2403 170.153 84.5167 169.004C85.4436 168.166 86.8947 166.112 87.7457 164.438C88.8017 162.361 89.3108 159.819 89.3488 156.448C89.3943 153.138 88.9765 150.688 88.1028 149.029C87.381 147.667 85.6867 145.803 84.3267 144.875C82.4501 143.604 80.49 143.14 76.1593 142.942C71.7831 142.752 69.8609 143.01 67.8779 144.053C66.4496 144.799 64.5502 146.267 63.6537 147.317V147.317Z" fill="#F4F4F4"/>
<path d="M11.5793 128.439C13.0381 127.822 15.7808 126.879 17.6574 126.354C19.648 125.791 25.7641 125.357 32.2828 125.319C41.2936 125.266 43.7096 125.471 44.6289 126.392C45.3887 127.153 45.7078 128.735 45.3887 134.762L34.6988 135.142C24.6244 135.5 23.8191 135.645 20.8332 137.615C18.7363 138.993 17.1408 140.872 16.1379 143.132C14.9907 145.719 14.5956 148.367 14.5196 153.975C14.4436 159.294 14.7475 162.041 15.5757 163.677C16.2139 164.933 17.3763 166.538 18.1513 167.246C18.9262 167.953 20.7572 169.034 22.216 169.65C23.8951 170.366 28.0965 170.86 33.6124 171.005C38.4141 171.134 43.117 170.99 44.0591 170.693C45.6926 170.168 45.7686 170.335 45.7989 174.52C45.8217 177.145 45.4419 179.276 44.8492 179.847C44.2338 180.44 40.3135 180.98 34.3722 181.292C26.9645 181.673 23.6215 181.513 19.1769 180.539C15.173 179.672 12.2327 178.439 9.30007 176.415C6.00271 174.14 4.59715 172.489 2.65216 168.6C0.304506 163.913 0.182944 163.228 0.0309924 154.165C-0.0981668 146.366 0.144956 143.916 1.36057 140.553C2.17352 138.293 4.20967 134.899 5.88115 133.004C7.55262 131.109 10.1206 129.055 11.5793 128.439Z" fill="#F4F4F4"/>
<path d="M110.918 154.165C110.789 161.493 110.69 155.154 110.69 140.088C110.69 125.022 110.797 119.026 110.918 126.772C111.04 134.518 111.04 146.838 110.918 154.165Z" fill="#F4F4F4"/>
<path d="M354.801 140.088C354.687 153.899 354.588 142.767 354.588 115.358C354.588 87.9499 354.687 76.6425 354.801 90.2479C354.915 103.846 354.915 126.278 354.801 140.088Z" fill="#F4F4F4"/>
<path d="M110.918 87.2041C110.781 91.1837 110.667 87.7596 110.667 79.5948C110.667 71.4301 110.781 68.181 110.918 72.3661C111.055 76.5511 111.055 83.2244 110.918 87.2041Z" fill="#F4F4F4"/>
<path fill-rule="evenodd" clip-rule="evenodd" d="M233.429 0.0249477C234.478 0.215179 239.773 2.72623 245.205 5.60252C250.638 8.47882 260.895 13.8509 267.998 17.549C275.102 21.2395 292.364 30.2489 306.366 37.5614C320.361 44.8738 336.096 53.0918 341.315 55.8235C346.542 58.5553 351.587 61.5076 354.269 63.9959L354.254 117.261C354.239 159.431 354.011 172.268 353.129 178.895C352.529 183.499 351.511 189.495 350.881 192.212C350.258 194.928 348.685 200.407 347.393 204.386C346.102 208.366 343.154 215.557 340.844 220.366C338.527 225.175 334.85 231.856 332.661 235.204C330.481 238.552 326.697 243.688 324.259 246.618C321.82 249.547 317.907 253.938 315.567 256.38C313.219 258.815 308.402 263.137 304.847 265.983C301.291 268.829 295.995 272.695 293.07 274.582C290.145 276.461 284.508 279.642 280.534 281.643C276.561 283.637 264.427 289.511 253.563 294.685C242.698 299.86 233.209 304.083 232.48 304.083C231.75 304.075 219.267 298.307 204.748 291.276C190.229 284.238 175.779 276.819 172.648 274.795C169.511 272.771 163.706 268.479 159.732 265.268C155.759 262.049 150.167 256.883 147.303 253.778C144.438 250.673 140.29 245.743 138.087 242.813C135.876 239.884 132.442 234.747 130.444 231.399C128.453 228.051 125.3 222.063 123.431 218.083C121.57 214.103 119.047 207.773 117.816 204.006C116.593 200.239 114.694 193.049 111.579 178.895L111.336 121.446C111.108 67.4581 111.176 63.9122 112.43 62.611C113.167 61.8501 118.553 58.7379 124.404 55.6866C130.254 52.6353 151.618 41.4725 171.889 30.8728C192.159 20.2731 213.865 8.92016 220.133 5.64057C228.217 1.40222 232.084 -0.226157 233.429 0.0249477V0.0249477ZM200 27.9965C193.527 31.3674 176.082 40.4681 161.252 48.2143C146.421 55.9605 131.462 63.798 128.012 65.6242L121.744 68.9419C121.767 164.385 121.972 174.703 122.914 180.037C123.545 183.59 124.7 189.244 125.49 192.592C126.273 195.94 128.164 201.929 129.692 205.908C131.219 209.888 134.182 216.386 136.271 220.366C138.368 224.345 142.022 230.311 144.401 233.636C146.771 236.962 151.96 243.079 155.934 247.242C159.907 251.404 166.745 257.507 171.129 260.809C176.128 264.568 183.505 269.042 190.883 272.801C197.356 276.104 209.238 281.917 217.284 285.729C225.33 289.534 232.252 292.654 232.669 292.654C233.087 292.654 238.474 290.249 244.636 287.312C250.797 284.367 255.926 281.97 256.032 281.986C256.138 281.993 262.376 278.919 269.898 275.152C277.419 271.386 285.541 267.026 287.942 265.473C290.343 263.914 294.879 260.535 298.009 257.963C301.147 255.391 306.784 250.072 310.545 246.138C314.306 242.212 319.563 235.752 322.222 231.78C324.882 227.8 328.68 221.302 330.656 217.322C332.631 213.343 335.131 207.696 336.202 204.767C337.281 201.837 338.686 197.553 339.332 195.255C339.978 192.957 341.201 187.045 342.052 182.129C343.503 173.729 343.594 170.054 343.594 121.065V68.9419C333.877 63.7828 318.75 55.8692 303.707 48.0165C288.664 40.1637 266.616 28.6585 254.702 22.4418C242.789 16.225 232.875 11.1421 232.669 11.1421C232.464 11.1421 227.678 13.5542 222.033 16.499C216.388 19.4437 206.473 24.618 200 27.9965V27.9965Z" fill="black"/>
<path d="M302.188 254.988L307.483 249.471C310.401 246.435 312.877 243.955 312.991 243.955C313.113 243.955 313.204 244.038 313.212 244.145C313.212 244.251 310.735 246.732 302.188 254.988Z" fill="#F4F4F4"/>
<path d="M163.531 255.384C163.319 255.384 160.416 252.637 157.073 249.281C153.73 245.925 151.269 243.186 151.603 243.186C151.93 243.194 154.84 245.933 158.061 249.289C161.275 252.637 163.736 255.384 163.531 255.384Z" fill="#F4F4F4"/>
<path d="M343.974 169.004L343.594 118.63C343.382 90.9251 343.465 68.493 343.777 68.7898C344.081 69.0789 344.255 91.7545 343.974 169.004Z" fill="#F4F4F4"/>
<path d="M121.167 118.783C121.061 91.998 121.137 69.6572 121.342 69.1322C121.539 68.6071 121.798 68.181 121.919 68.181C122.033 68.181 121.957 90.5218 121.365 167.482L121.167 118.783Z" fill="#F4F4F4"/>
<path fill-rule="evenodd" clip-rule="evenodd" d="M232.67 30.1651C233.293 30.1195 234.668 30.7282 235.709 31.5272C236.757 32.3185 241.582 38.0635 246.437 44.2955C251.299 50.5275 257.613 58.8748 260.469 62.8544C263.326 66.8341 268.705 74.8771 272.413 80.7362C276.12 86.5953 281.492 96.1829 284.349 102.042C287.213 107.901 290.328 115.267 291.285 118.402C292.531 122.488 293.033 126.049 293.048 130.957C293.071 137.471 292.934 138.057 290.222 142.942C288.656 145.765 287.631 148.07 287.942 148.07C288.254 148.063 290.563 147.568 293.071 146.967C295.578 146.374 303.616 145.011 310.925 143.939C318.242 142.873 325.756 142.006 327.64 142.013C329.828 142.021 331.545 142.5 332.411 143.345C333.277 144.182 333.756 145.75 333.741 147.698C333.725 149.372 333.178 155.193 332.517 160.633C331.856 166.074 330.337 175.319 329.129 181.178C327.928 187.037 325.945 194.913 324.722 198.679C323.507 202.446 321.44 207.666 320.133 210.284C318.834 212.901 316.479 216.432 314.914 218.129C313.349 219.826 310.53 221.796 308.646 222.504C306.139 223.448 303.107 223.76 297.249 223.683C292.189 223.607 285.519 222.839 279.015 221.576C273.37 220.488 267.566 219.597 266.099 219.605C264.162 219.613 261.381 220.914 255.842 224.399C251.664 227.032 245.928 230.714 237.942 235.965L237.996 252.705C238.049 268.213 237.942 269.582 236.567 271.348C235.534 272.672 234.341 273.25 232.647 273.25C230.945 273.25 229.775 272.679 228.757 271.348C227.42 269.605 227.298 268.061 227.351 235.965L223.743 233.537C221.76 232.198 216.031 228.508 211.017 225.327C204.08 220.944 201.261 219.559 199.24 219.574C197.774 219.582 191.795 220.51 185.944 221.637C179.122 222.945 172.588 223.699 167.71 223.737C162.863 223.767 159.011 223.394 157.074 222.694C155.402 222.086 152.88 220.548 151.474 219.27C150.069 217.984 147.774 214.887 146.376 212.376C144.986 209.865 142.828 204.904 141.59 201.343C140.351 197.782 138.475 191.108 137.419 186.505C136.355 181.901 134.775 173.516 133.909 167.862C133.035 162.208 132.123 154.683 131.88 151.122C131.462 145.118 131.553 144.547 133.111 143.132C134.607 141.778 135.42 141.671 140.617 142.143C143.816 142.432 150.198 143.223 154.794 143.893C159.391 144.57 166.396 145.765 170.369 146.564C174.343 147.355 177.671 147.85 177.777 147.659C177.883 147.469 177.268 146.374 176.409 145.225C175.551 144.076 174.183 141.336 173.37 139.137C172.558 136.938 171.889 133.514 171.897 131.528C171.897 129.542 172.565 125.174 173.37 121.826C174.183 118.478 175.756 113.509 176.873 110.793C177.982 108.076 180.193 103.282 181.766 100.14C183.346 97.0047 186.256 91.6935 188.224 88.3454C190.199 84.9973 194.56 78.149 197.926 73.1269C201.292 68.1048 206.959 60.0542 210.53 55.2452C214.094 50.4362 219.86 43.0095 223.332 38.756C226.804 34.4948 230.064 30.8424 230.588 30.6369C231.105 30.4238 232.047 30.2184 232.67 30.1651V30.1651ZM225.361 53.0918C224.48 54.0658 221.38 58.1139 218.485 62.0935C215.583 66.0732 210.538 73.2639 207.279 78.0729C204.012 82.882 199.438 90.0727 197.105 94.0524C194.773 98.032 191.232 104.705 189.242 108.89C187.244 113.075 184.873 119.406 183.977 122.967C182.845 127.472 182.495 130.47 182.837 132.86C183.111 134.747 184.433 137.981 185.777 140.05C187.122 142.12 190.784 146.001 193.922 148.664C197.052 151.335 205.242 157.346 212.103 162.018C218.971 166.698 226.409 172.154 228.628 174.14L232.67 177.754C238.262 172.694 246.193 166.957 253.897 161.744C261.601 156.532 270.437 149.866 273.53 146.937C277.298 143.36 279.798 140.233 281.112 137.425C282.799 133.841 283.011 132.586 282.616 128.674C282.366 126.163 281.591 122.397 280.899 120.304C280.2 118.212 278.742 114.445 277.655 111.934C276.569 109.423 273.811 103.944 271.531 99.7593C269.245 95.5742 264.238 87.3562 260.393 81.4971C256.549 75.638 250.273 66.6515 246.452 61.5228C242.63 56.3942 239.166 52.0265 238.748 51.821C238.246 51.5699 237.988 63.2349 237.988 86.0626C237.988 108.639 238.254 120.685 238.748 120.685C239.166 120.685 244.378 117.428 250.334 113.456C257.453 108.7 261.875 106.227 263.25 106.227C264.397 106.227 266.023 106.912 266.859 107.749C267.695 108.586 268.386 110.214 268.401 111.363C268.409 112.581 267.695 114.133 266.692 115.069C265.734 115.959 259.147 120.548 252.044 125.273C244.94 129.998 238.877 134.237 238.573 134.693C238.262 135.15 238.003 140.918 238.003 147.507L237.988 159.492C234.751 161.889 233.293 162.589 232.67 162.596C232.047 162.596 230.778 161.988 229.859 161.234C228.939 160.489 227.898 158.678 227.534 157.209C226.949 154.812 225.498 153.625 212.87 145.225C205.166 140.096 198.427 135.302 197.896 134.572C197.371 133.841 196.923 132.555 196.915 131.718C196.908 130.881 197.508 129.382 198.26 128.385C199.142 127.206 200.426 126.551 201.899 126.521C203.563 126.483 206.952 128.34 214.435 133.4C220.081 137.212 225.292 140.53 226.022 140.781C227.268 141.199 227.336 140.172 227.161 125.06L226.972 108.898C213.767 98.869 209.429 95.4372 208.813 94.8133C208.198 94.1893 207.506 92.7283 207.271 91.5793C206.937 89.9586 207.309 89.0302 208.927 87.4704C210.561 85.8952 211.472 85.5604 213.106 85.9485C214.253 86.2224 217.771 88.4139 220.909 90.8184C224.054 93.2229 226.782 95.0187 226.979 94.8133C227.169 94.6078 227.245 84.731 227.146 72.8758L226.972 51.3188L225.361 53.0918ZM142.988 156.829C143.056 158.503 143.953 164.666 144.993 170.525C146.027 176.384 147.911 185.112 149.172 189.929C150.441 194.738 152.621 201.076 154.019 204.006C155.417 206.936 157.476 210.185 158.593 211.235C160.204 212.749 161.579 213.19 165.302 213.403C167.9 213.548 174.381 212.932 179.866 212.011C185.299 211.098 190.009 210.116 190.328 209.842C190.655 209.561 188.604 206.882 185.77 203.899L180.626 198.459C162.795 202.903 161.138 203.108 159.436 202.294C158.342 201.769 157.112 200.483 156.694 199.44C156.131 198.033 156.23 196.945 157.074 195.255C158.069 193.254 159.026 192.759 164.686 191.26C168.25 190.317 171.152 189.29 171.144 188.978C171.137 188.666 168.212 185.751 164.641 182.51C161.078 179.268 157.689 175.585 157.104 174.33C156.238 172.45 156.223 171.712 157.02 170.145C157.56 169.095 158.555 167.984 159.247 167.672C159.93 167.36 161.427 167.101 162.582 167.109C164.193 167.109 166.024 168.509 170.559 173.196L176.447 179.276C176.447 173.379 176.835 170.898 177.321 169.955C177.8 169.011 178.567 167.991 179.031 167.679C179.487 167.375 180.892 167.109 182.146 167.086C183.528 167.063 185.018 167.687 185.944 168.676C187.266 170.092 187.441 171.202 187.282 177.259C187.183 181.087 187.274 185.592 187.487 187.266C187.806 189.784 188.862 191.329 193.557 196.206C196.68 199.448 199.248 201.845 199.263 201.533C199.278 201.221 200.137 197.196 201.162 192.592C202.196 187.988 203.465 183.781 203.989 183.233C204.505 182.692 206.048 182.266 207.408 182.282C208.821 182.304 210.523 182.966 211.396 183.841C212.232 184.678 212.916 186.132 212.924 187.075C212.931 188.019 212.27 192.037 211.45 196.016C210.637 199.988 209.862 205.125 209.733 207.43L209.497 211.615C222.451 220.16 226.462 222.641 226.782 222.641C227.093 222.649 227.351 214.94 227.351 205.528V188.407C223.385 183.986 220.392 181.3 218.143 179.595C215.894 177.891 208.927 172.96 202.659 168.646C196.391 164.324 189.295 159.127 186.894 157.095C182.974 153.785 182.488 153.557 182.146 154.926C181.933 155.763 180.991 156.966 180.056 157.605C178.506 158.647 177.58 158.602 170.369 157.148C165.978 156.258 157.963 154.942 152.553 154.219C147.151 153.488 142.752 153.1 142.798 153.344C142.836 153.587 142.919 155.155 142.988 156.829V156.829ZM309.785 154.5C306.025 155.101 299.354 156.296 294.97 157.148C287.851 158.533 286.803 158.579 285.283 157.574C284.341 156.95 283.574 155.931 283.574 155.307C283.574 154.675 283.232 154.165 282.814 154.165C282.396 154.165 279.912 155.961 277.306 158.168C274.692 160.367 266.745 166.097 259.641 170.898C252.537 175.707 244.765 181.521 242.364 183.834L238.011 188.027C237.988 214.857 238.239 222.641 238.558 222.626C238.869 222.611 242.205 220.67 245.966 218.311C249.726 215.952 253.594 213.312 254.558 212.437C256.116 211.037 256.26 210.413 255.812 207.05C255.531 204.957 254.65 199.988 253.852 196.016C253.054 192.037 252.401 188.019 252.408 187.075C252.416 186.132 253.107 184.678 253.943 183.841C254.878 182.898 256.473 182.32 258.122 182.32C260.051 182.32 261.07 182.784 261.852 184.032C262.445 184.975 263.554 189.039 264.321 193.071C265.089 197.104 265.97 200.696 266.282 201.061C266.593 201.426 267.573 201.038 268.454 200.201C269.343 199.364 271.737 196.709 273.78 194.304L277.496 189.929C277.837 172.154 278.119 170 279.182 168.699C280.064 167.626 281.37 167.101 283.171 167.101C284.987 167.101 286.347 167.649 287.388 168.813C288.573 170.145 288.915 171.545 288.884 175.091L288.846 179.656C299.946 167.854 300.987 167.086 303.327 167.071C304.9 167.055 306.518 167.603 307.293 168.41C308.015 169.156 308.615 170.875 308.623 172.237C308.638 174.337 307.567 175.821 301.466 182.129L294.279 189.548C303.343 191.907 306.579 193.193 307.309 193.924C308.046 194.654 308.646 196.283 308.646 197.538C308.646 198.809 307.97 200.498 307.126 201.343C306.29 202.18 304.832 202.857 303.897 202.849C302.955 202.842 298.936 201.989 294.97 200.962C290.997 199.935 286.962 199.083 286.005 199.075C284.835 199.068 282.632 200.749 279.319 204.196C275.049 208.625 274.555 209.416 275.741 209.934C276.493 210.268 281.044 211.212 285.853 212.034C290.655 212.855 296.467 213.525 298.769 213.51C301.063 213.502 303.783 213.069 304.801 212.551C305.827 212.034 307.719 210.246 309.003 208.571C310.363 206.799 312.505 202.028 314.116 197.158C315.643 192.554 317.451 186.048 318.128 182.7C318.811 179.352 320.027 172.671 320.84 167.862C321.645 163.045 322.238 157.863 322.139 156.342C321.987 153.808 321.759 153.541 319.419 153.26C318.014 153.085 316.813 153.047 316.745 153.169C316.676 153.298 313.546 153.891 309.785 154.5V154.5Z" fill="black"/>
<path d="M273.521 209.918C273.43 209.614 275.9 206.875 279.015 203.831C282.532 200.392 285.252 198.329 286.209 198.39C287.395 198.459 287.471 198.565 286.529 198.877C285.86 199.098 282.874 201.541 279.896 204.303C276.249 207.696 274.79 209.515 275.421 209.888C276.064 210.268 275.932 210.459 275.026 210.459C274.296 210.466 273.62 210.223 273.521 209.918Z" fill="#F4F4F4"/>
<path d="M293.07 190.309L299.893 183.271C303.646 179.398 306.807 176.232 306.921 176.232C307.035 176.232 307.126 176.316 307.133 176.422C307.133 176.529 303.973 179.694 293.07 190.309Z" fill="#F4F4F4"/>
<path d="M278.05 181.559C277.89 183.446 277.761 182.244 277.753 178.895C277.753 175.547 277.883 174.01 278.05 175.471C278.209 176.94 278.209 179.672 278.05 181.559Z" fill="#F4F4F4"/>
<path d="M288.496 180.417L288.124 174.939C287.919 171.918 288.018 169.696 288.337 169.993C288.656 170.282 288.823 172.755 288.496 180.417Z" fill="#F4F4F4"/>
</svg>
